<mxfile modified="2021-11-23T03:44:20.851Z" host="app.diagrams.net" agent="5.0 (Macintosh; Intel Mac OS X 10_15_7) AppleWebKit/537.36 (KHTML, like Gecko) Chrome/95.0.4638.69 Safari/537.36" etag="m7eS5eBjudwLzMsYxklf" version="15.8.2" type="github">
  <diagram id="Ht1M8jgEwFfnCIfOTk4-" name="Page-1">
    <mxGraphModel dx="925" dy="1328" grid="1" gridSize="10" guides="1" tooltips="1" connect="1" arrows="1" fold="1" page="1" pageScale="1" pageWidth="1169" pageHeight="827" math="0" shadow="0">
      <root>
        <mxCell id="0" />
        <mxCell id="1" parent="0" />
        <mxCell id="6FNGuCrmEd_Gx9L0aRJh-14" value="&lt;font color=&quot;#ffffff&quot;&gt;云游戏接入&lt;/font&gt;" style="rounded=0;whiteSpace=wrap;html=1;labelBackgroundColor=none;fontColor=#B3B3B3;strokeColor=none;fillColor=#007FFF;" parent="1" vertex="1">
          <mxGeometry x="170" y="30" width="590" height="20" as="geometry" />
        </mxCell>
        <mxCell id="WoO2-zIwluf7Z4JxM-RB-1" value="" style="group;imageAlign=center;imageVerticalAlign=middle;" vertex="1" connectable="0" parent="1">
          <mxGeometry x="140" y="170" width="122.23880597014924" height="40" as="geometry" />
        </mxCell>
        <mxCell id="WoO2-zIwluf7Z4JxM-RB-2" value="" style="rounded=0;whiteSpace=wrap;html=1;labelBackgroundColor=none;fontColor=#B3B3B3;strokeColor=#E6E6E6;" vertex="1" parent="WoO2-zIwluf7Z4JxM-RB-1">
          <mxGeometry width="122.23880597014924" height="40" as="geometry" />
        </mxCell>
        <mxCell id="WoO2-zIwluf7Z4JxM-RB-3" value="&lt;font color=&quot;#000000&quot;&gt;腾讯云云游戏SDK&lt;/font&gt;" style="text;html=1;resizable=0;autosize=1;align=center;verticalAlign=middle;points=[];fillColor=none;strokeColor=none;rounded=0;fontColor=#B3B3B3;labelBackgroundColor=none;" vertex="1" parent="WoO2-zIwluf7Z4JxM-RB-1">
          <mxGeometry x="9.406119402985077" y="9.997333333333335" width="110" height="20" as="geometry" />
        </mxCell>
        <mxCell id="WoO2-zIwluf7Z4JxM-RB-6" value="" style="group;imageAlign=center;imageVerticalAlign=middle;" vertex="1" connectable="0" parent="1">
          <mxGeometry x="338.25373134328356" y="170" width="122.23880597014924" height="40" as="geometry" />
        </mxCell>
        <mxCell id="WoO2-zIwluf7Z4JxM-RB-7" value="" style="rounded=0;whiteSpace=wrap;html=1;labelBackgroundColor=none;fontColor=#B3B3B3;strokeColor=#E6E6E6;" vertex="1" parent="WoO2-zIwluf7Z4JxM-RB-6">
          <mxGeometry width="122.23880597014924" height="40" as="geometry" />
        </mxCell>
        <mxCell id="WoO2-zIwluf7Z4JxM-RB-8" value="&lt;font color=&quot;#000000&quot;&gt;业务客户端&lt;/font&gt;" style="text;html=1;resizable=0;autosize=1;align=center;verticalAlign=middle;points=[];fillColor=none;strokeColor=none;rounded=0;fontColor=#B3B3B3;labelBackgroundColor=none;" vertex="1" parent="WoO2-zIwluf7Z4JxM-RB-6">
          <mxGeometry x="23.510597014925374" y="9.997333333333335" width="80" height="20" as="geometry" />
        </mxCell>
        <mxCell id="WoO2-zIwluf7Z4JxM-RB-9" value="" style="group;imageAlign=center;imageVerticalAlign=middle;" vertex="1" connectable="0" parent="1">
          <mxGeometry x="537.5074626865671" y="170" width="122.23880597014924" height="40" as="geometry" />
        </mxCell>
        <mxCell id="WoO2-zIwluf7Z4JxM-RB-10" value="" style="rounded=0;whiteSpace=wrap;html=1;labelBackgroundColor=none;fontColor=#B3B3B3;strokeColor=#E6E6E6;" vertex="1" parent="WoO2-zIwluf7Z4JxM-RB-9">
          <mxGeometry width="122.23880597014924" height="40" as="geometry" />
        </mxCell>
        <mxCell id="WoO2-zIwluf7Z4JxM-RB-11" value="&lt;font color=&quot;#000000&quot;&gt;业务后台&lt;/font&gt;" style="text;html=1;resizable=0;autosize=1;align=center;verticalAlign=middle;points=[];fillColor=none;strokeColor=none;rounded=0;fontColor=#B3B3B3;labelBackgroundColor=none;" vertex="1" parent="WoO2-zIwluf7Z4JxM-RB-9">
          <mxGeometry x="32.91358208955224" y="9.997333333333335" width="60" height="20" as="geometry" />
        </mxCell>
        <mxCell id="WoO2-zIwluf7Z4JxM-RB-12" value="" style="group;imageAlign=center;imageVerticalAlign=middle;" vertex="1" connectable="0" parent="1">
          <mxGeometry x="736.7611940298507" y="170" width="122.23880597014924" height="40" as="geometry" />
        </mxCell>
        <mxCell id="WoO2-zIwluf7Z4JxM-RB-13" value="" style="rounded=0;whiteSpace=wrap;html=1;labelBackgroundColor=none;fontColor=#B3B3B3;strokeColor=#E6E6E6;" vertex="1" parent="WoO2-zIwluf7Z4JxM-RB-12">
          <mxGeometry width="122.23880597014924" height="40" as="geometry" />
        </mxCell>
        <mxCell id="WoO2-zIwluf7Z4JxM-RB-14" value="&lt;font color=&quot;#000000&quot;&gt;腾讯云云游戏后台&lt;/font&gt;" style="text;html=1;resizable=0;autosize=1;align=center;verticalAlign=middle;points=[];fillColor=none;strokeColor=none;rounded=0;fontColor=#B3B3B3;labelBackgroundColor=none;" vertex="1" parent="WoO2-zIwluf7Z4JxM-RB-12">
          <mxGeometry x="9.406119402985077" y="9.997333333333335" width="110" height="20" as="geometry" />
        </mxCell>
        <mxCell id="WoO2-zIwluf7Z4JxM-RB-15" value="" style="endArrow=none;dashed=1;html=1;strokeWidth=1;rounded=0;entryX=0.5;entryY=1;entryDx=0;entryDy=0;startArrow=none;" edge="1" parent="1" source="WoO2-zIwluf7Z4JxM-RB-34">
          <mxGeometry x="139" y="170" width="50" height="50" as="geometry">
            <mxPoint x="200.11940298507463" y="700" as="sourcePoint" />
            <mxPoint x="200.11940298507466" y="210" as="targetPoint" />
          </mxGeometry>
        </mxCell>
        <mxCell id="WoO2-zIwluf7Z4JxM-RB-16" value="" style="endArrow=none;dashed=1;html=1;strokeWidth=1;rounded=0;entryX=0.5;entryY=1;entryDx=0;entryDy=0;startArrow=none;" edge="1" parent="1" source="WoO2-zIwluf7Z4JxM-RB-23">
          <mxGeometry x="168" y="170" width="50" height="50" as="geometry">
            <mxPoint x="397.9029850746268" y="700" as="sourcePoint" />
            <mxPoint x="398.3731343283582" y="210" as="targetPoint" />
          </mxGeometry>
        </mxCell>
        <mxCell id="WoO2-zIwluf7Z4JxM-RB-18" value="" style="endArrow=none;dashed=1;html=1;strokeWidth=1;rounded=0;entryX=0.5;entryY=1;entryDx=0;entryDy=0;startArrow=none;" edge="1" parent="1" source="WoO2-zIwluf7Z4JxM-RB-33">
          <mxGeometry x="200" y="170" width="50" height="50" as="geometry">
            <mxPoint x="598.9592537313433" y="700" as="sourcePoint" />
            <mxPoint x="598.9592537313433" y="210" as="targetPoint" />
          </mxGeometry>
        </mxCell>
        <mxCell id="WoO2-zIwluf7Z4JxM-RB-19" value="" style="endArrow=none;dashed=1;html=1;strokeWidth=1;rounded=0;entryX=0.5;entryY=1;entryDx=0;entryDy=0;startArrow=none;" edge="1" parent="1">
          <mxGeometry x="231" y="170" width="50" height="50" as="geometry">
            <mxPoint x="799" y="700" as="sourcePoint" />
            <mxPoint x="799.2129850746269" y="210" as="targetPoint" />
          </mxGeometry>
        </mxCell>
        <mxCell id="WoO2-zIwluf7Z4JxM-RB-24" value="" style="endArrow=blockThin;html=1;rounded=0;strokeWidth=1;entryX=1;entryY=0;entryDx=0;entryDy=0;endFill=1;" edge="1" parent="1">
          <mxGeometry width="50" height="50" relative="1" as="geometry">
            <mxPoint x="400" y="240" as="sourcePoint" />
            <mxPoint x="205" y="240.00000000000006" as="targetPoint" />
          </mxGeometry>
        </mxCell>
        <mxCell id="WoO2-zIwluf7Z4JxM-RB-25" value="1、初始化SDK" style="edgeLabel;html=1;align=center;verticalAlign=middle;resizable=0;points=[];" vertex="1" connectable="0" parent="WoO2-zIwluf7Z4JxM-RB-24">
          <mxGeometry x="0.1875" y="-2" relative="1" as="geometry">
            <mxPoint x="5" as="offset" />
          </mxGeometry>
        </mxCell>
        <mxCell id="WoO2-zIwluf7Z4JxM-RB-29" value="" style="endArrow=blockThin;html=1;rounded=0;strokeWidth=1;entryX=0;entryY=0;entryDx=0;entryDy=0;endFill=1;exitX=1;exitY=1;exitDx=0;exitDy=0;dashed=1;" edge="1" parent="1" target="WoO2-zIwluf7Z4JxM-RB-23">
          <mxGeometry width="50" height="50" relative="1" as="geometry">
            <mxPoint x="205" y="310" as="sourcePoint" />
            <mxPoint x="140" y="380" as="targetPoint" />
          </mxGeometry>
        </mxCell>
        <mxCell id="WoO2-zIwluf7Z4JxM-RB-30" value="获取Client Session" style="edgeLabel;html=1;align=center;verticalAlign=middle;resizable=0;points=[];" vertex="1" connectable="0" parent="WoO2-zIwluf7Z4JxM-RB-29">
          <mxGeometry x="0.1875" y="-2" relative="1" as="geometry">
            <mxPoint x="-25" y="-3" as="offset" />
          </mxGeometry>
        </mxCell>
        <mxCell id="WoO2-zIwluf7Z4JxM-RB-34" value="" style="rounded=0;whiteSpace=wrap;html=1;strokeColor=#424242;fillColor=#FFFFFF;" vertex="1" parent="1">
          <mxGeometry x="195.12" y="240" width="10" height="70" as="geometry" />
        </mxCell>
        <mxCell id="WoO2-zIwluf7Z4JxM-RB-35" value="" style="endArrow=none;dashed=1;html=1;strokeWidth=1;rounded=0;entryX=0.5;entryY=1;entryDx=0;entryDy=0;" edge="1" parent="1" target="WoO2-zIwluf7Z4JxM-RB-34">
          <mxGeometry x="139" y="170" width="50" height="50" as="geometry">
            <mxPoint x="200.11940298507466" y="700" as="sourcePoint" />
            <mxPoint x="200.11940298507466" y="210" as="targetPoint" />
          </mxGeometry>
        </mxCell>
        <mxCell id="WoO2-zIwluf7Z4JxM-RB-23" value="" style="rounded=0;whiteSpace=wrap;html=1;strokeColor=#424242;" vertex="1" parent="1">
          <mxGeometry x="394.37" y="310" width="10" height="160" as="geometry" />
        </mxCell>
        <mxCell id="WoO2-zIwluf7Z4JxM-RB-36" value="" style="endArrow=none;dashed=1;html=1;strokeWidth=1;rounded=0;entryX=0.5;entryY=1;entryDx=0;entryDy=0;" edge="1" parent="1" target="WoO2-zIwluf7Z4JxM-RB-23">
          <mxGeometry x="168" y="170" width="50" height="50" as="geometry">
            <mxPoint x="397.9029850746268" y="700" as="sourcePoint" />
            <mxPoint x="398.3731343283582" y="210" as="targetPoint" />
          </mxGeometry>
        </mxCell>
        <mxCell id="WoO2-zIwluf7Z4JxM-RB-33" value="" style="rounded=0;whiteSpace=wrap;html=1;strokeColor=#424242;" vertex="1" parent="1">
          <mxGeometry x="593.63" y="334" width="10" height="160" as="geometry" />
        </mxCell>
        <mxCell id="WoO2-zIwluf7Z4JxM-RB-37" value="" style="endArrow=none;dashed=1;html=1;strokeWidth=1;rounded=0;entryX=0.5;entryY=1;entryDx=0;entryDy=0;" edge="1" parent="1" target="WoO2-zIwluf7Z4JxM-RB-33">
          <mxGeometry x="200" y="170" width="50" height="50" as="geometry">
            <mxPoint x="598.9592537313432" y="700" as="sourcePoint" />
            <mxPoint x="598.9592537313432" y="210" as="targetPoint" />
          </mxGeometry>
        </mxCell>
        <mxCell id="WoO2-zIwluf7Z4JxM-RB-40" value="" style="rounded=0;whiteSpace=wrap;html=1;strokeColor=#424242;fillColor=#FFFFFF;" vertex="1" parent="1">
          <mxGeometry x="794" y="342" width="10" height="56" as="geometry" />
        </mxCell>
        <mxCell id="WoO2-zIwluf7Z4JxM-RB-42" value="" style="endArrow=blockThin;html=1;rounded=0;strokeWidth=1;entryX=0;entryY=0;entryDx=0;entryDy=0;endFill=1;exitX=0.965;exitY=0.043;exitDx=0;exitDy=0;exitPerimeter=0;" edge="1" parent="1" source="WoO2-zIwluf7Z4JxM-RB-33" target="WoO2-zIwluf7Z4JxM-RB-40">
          <mxGeometry width="50" height="50" relative="1" as="geometry">
            <mxPoint x="609" y="342" as="sourcePoint" />
            <mxPoint x="593.63" y="389.71000000000004" as="targetPoint" />
          </mxGeometry>
        </mxCell>
        <mxCell id="WoO2-zIwluf7Z4JxM-RB-43" value="2、调用TrylockWorker()锁定机器" style="edgeLabel;html=1;align=center;verticalAlign=middle;resizable=0;points=[];" vertex="1" connectable="0" parent="WoO2-zIwluf7Z4JxM-RB-42">
          <mxGeometry x="0.1875" y="-2" relative="1" as="geometry">
            <mxPoint x="-22" y="-4" as="offset" />
          </mxGeometry>
        </mxCell>
      </root>
    </mxGraphModel>
  </diagram>
</mxfile>
